<?xml version="1.0" encoding="utf-8"?>
<!-- Generator: Adobe Illustrator 16.0.0, SVG Export Plug-In . SVG Version: 6.00 Build 0)  -->
<!DOCTYPE svg PUBLIC "-//W3C//DTD SVG 1.1//EN" "http://www.w3.org/Graphics/SVG/1.1/DTD/svg11.dtd">
<svg version="1.1" id="Layer_1" xmlns="http://www.w3.org/2000/svg" xmlns:xlink="http://www.w3.org/1999/xlink" x="0px" y="0px"
	 width="1000px" height="300px" viewBox="0 0 1000 300" enable-background="new 0 0 1000 300" xml:space="preserve">
<circle fill="none" stroke="#70264B" stroke-width="4" stroke-miterlimit="10" cx="500" cy="150" r="40"/>
<g>
	<g id="_________x5F_x0020_x5F_1">
		<path id="svg_1" fill="#70264B" d="M484.716,120.213c2.849,11.645,12.949,19.616,15.394,27.168
			c2.875,7.767,1.338,12.108,0.254,17.98c0.306-0.287,2.808-4.616,8.846-7.561c8.073-4.29,18.336-2.627,25.04-8.232
			c-0.807,0.976-6.236,13.18-8.994,13.708c0.106,2.555-1.652,2.951-2.615,3.207c0.043,2.422-1.821,2.763-2.871,2.694
			c0.059,0.754-0.183,2.812-2.69,2.671c-0.56,1.303-1.724,1.735-2.505,1.936c-2.732,0.703-8.316-2.138-10.71-3.742
			c1.372,0.969,4.124,3.107,4.981,5.918c0.373,1.222,0.886,4.738-0.529,5.041c-0.672,0.416-2.271,0.471-3.095-0.333
			c-1.429,0.737-2.448,0.11-3.452-0.577c-0.74,0.056-1.457,0.047-2.016-0.523c-1.682-1.721-1.458-6.687-0.703-11
			c-5.493,3.9-12.75,7.385-19.496,6.375c-1.701-0.322-2.269-1.035-1.957-3.105c-1.497-0.879-2.015-2.6-1.079-3.852
			c-0.877-0.428-2.921-2.697-2.043-4.464c0.204-0.409,0.661-1.088,1.908-1.34c5.233-1.874,12.705,1.616,15.356,2.423
			c0,0-3.421-1.415-8.065-4.159c-2.765-1.633-7.699-5.277-6.714-9.477c-0.721-0.86-1.675-3.784,0.174-5.371
			c-0.273-0.481-1.579-3.276,0.753-5.047c-0.871-2.694,0.451-4.069,1.182-4.463C478.591,131.448,484.308,125.262,484.716,120.213
			L484.716,120.213z"/>
	</g>
</g>
</svg>
