<?xml version="1.0" encoding="utf-8"?>
<!-- Generator: Adobe Illustrator 16.0.0, SVG Export Plug-In . SVG Version: 6.00 Build 0)  -->
<!DOCTYPE svg PUBLIC "-//W3C//DTD SVG 1.1//EN" "http://www.w3.org/Graphics/SVG/1.1/DTD/svg11.dtd">
<svg version="1.1" id="Layer_1" xmlns="http://www.w3.org/2000/svg" xmlns:xlink="http://www.w3.org/1999/xlink" x="0px" y="0px"
	 width="78.598px" height="59.605px" viewBox="0 0 78.598 59.605" enable-background="new 0 0 78.598 59.605" xml:space="preserve">
<text transform="matrix(1 0 0 1 7.0022 56.4998)" fill="#05325B" font-family="'Helvetica'" font-size="14">Connector</text>
<g>
	<circle fill="none" stroke="#70BF4F" stroke-width="2.8531" stroke-miterlimit="10" cx="39.299" cy="22" r="20"/>
	<g>
		<circle fill="#70BF4F" cx="43.831" cy="33.251" r="4.664"/>
		<circle fill="#70BF4F" cx="43.831" cy="10.748" r="4.664"/>
	</g>
	<circle fill="#70BF4F" cx="28.408" cy="22" r="4.664"/>
	<path fill="#CC9900" stroke="#70BF4F" stroke-width="2.2825" stroke-miterlimit="10" d="M50.832,17.749
		c-0.461-1.01-1.104-1.967-1.93-2.822"/>
	<path fill="#E2C73D" stroke="#617FC6" stroke-width="1.1412" stroke-miterlimit="10" d="M50.368,18.071"/>
	<path fill="#E2C73D" stroke="#617FC6" stroke-width="1.1412" stroke-miterlimit="10" d="M51.016,19.911"/>
	<path fill="#CC9900" stroke="#70BF4F" stroke-width="2.2825" stroke-miterlimit="10" d="M51.732,23.967
		c0.233-1.283,0.185-2.628-0.147-3.934"/>
	<path fill="#CC9900" stroke="#70BF4F" stroke-width="2.2825" stroke-miterlimit="10" d="M49.141,29.425
		c0.876-0.845,1.525-1.84,1.952-2.916"/>
	<g>
		<path fill="#E2C73D" stroke="#FFFFFF" stroke-width="1.1412" stroke-miterlimit="10" d="M44.121,20.983"/>
		<path fill="#E2C73D" stroke="#FFFFFF" stroke-width="1.1412" stroke-miterlimit="10" d="M55.419,16.905"/>
		<path fill="#E2C73D" stroke="#FFFFFF" stroke-width="1.1412" stroke-miterlimit="10" d="M55.498,18.175"/>
		<path fill="#E2C73D" stroke="#FFFFFF" stroke-width="1.1412" stroke-miterlimit="10" d="M44.121,20.983"/>
	</g>
	<line fill="none" stroke="#70BF4F" stroke-width="2.2825" stroke-miterlimit="10" x1="28.408" y1="22" x2="43.831" y2="33.252"/>
	<line fill="none" stroke="#70BF4F" stroke-width="2.2825" stroke-miterlimit="10" x1="43.831" y1="10.749" x2="28.408" y2="22"/>
</g>
</svg>
