<?xml version="1.0" encoding="utf-8"?>
<!-- Generator: Adobe Illustrator 16.0.0, SVG Export Plug-In . SVG Version: 6.00 Build 0)  -->
<!DOCTYPE svg PUBLIC "-//W3C//DTD SVG 1.1//EN" "http://www.w3.org/Graphics/SVG/1.1/DTD/svg11.dtd">
<svg version="1.1" id="Layer_1" xmlns="http://www.w3.org/2000/svg" xmlns:xlink="http://www.w3.org/1999/xlink" x="0px" y="0px"
	 width="777px" height="777px" viewBox="0 0 777 777" enable-background="new 0 0 777 777" xml:space="preserve">
<circle fill="#D3C68D" stroke="#997B00" stroke-width="50" stroke-miterlimit="10" cx="388.5" cy="388.5" r="350.5"/>
<g>
	<circle fill="#997B00" cx="467.914" cy="585.683" r="81.736"/>
	<circle fill="#997B00" cx="467.914" cy="191.316" r="81.736"/>
</g>
<circle fill="#997B00" cx="197.623" cy="388.501" r="81.736"/>
<path fill="#CC9900" stroke="#997B00" stroke-width="40" stroke-miterlimit="10" d="M590.601,313.996
	c-8.084-17.7-19.357-34.484-33.81-49.453"/>
<path fill="#E2C73D" stroke="#617FC6" stroke-width="20" stroke-miterlimit="10" d="M582.468,319.653"/>
<path fill="#E2C73D" stroke="#617FC6" stroke-width="20" stroke-miterlimit="10" d="M593.833,351.889"/>
<path fill="#CC9900" stroke="#997B00" stroke-width="40" stroke-miterlimit="10" d="M606.387,422.977
	c4.102-22.507,3.229-46.064-2.588-68.953"/>
<path fill="#CC9900" stroke="#997B00" stroke-width="40" stroke-miterlimit="10" d="M560.985,518.62
	c15.345-14.812,26.745-32.25,34.223-51.106"/>
<g>
	<path fill="#E2C73D" stroke="#FFFFFF" stroke-width="20" stroke-miterlimit="10" d="M472.99,370.687"/>
	<path fill="#E2C73D" stroke="#FFFFFF" stroke-width="20" stroke-miterlimit="10" d="M671.01,299.207"/>
	<path fill="#E2C73D" stroke="#FFFFFF" stroke-width="20" stroke-miterlimit="10" d="M672.366,321.47"/>
	<path fill="#E2C73D" stroke="#FFFFFF" stroke-width="20" stroke-miterlimit="10" d="M472.99,370.687"/>
</g>
<line fill="none" stroke="#997B00" stroke-width="40" stroke-miterlimit="10" x1="197.623" y1="388.5" x2="467.914" y2="585.684"/>
<line fill="none" stroke="#997B00" stroke-width="40" stroke-miterlimit="10" x1="467.914" y1="191.316" x2="197.623" y2="388.5"/>
</svg>
