<?xml version="1.0" encoding="utf-8"?>
<!-- Generator: Adobe Illustrator 16.0.0, SVG Export Plug-In . SVG Version: 6.00 Build 0)  -->
<!DOCTYPE svg PUBLIC "-//W3C//DTD SVG 1.1//EN" "http://www.w3.org/Graphics/SVG/1.1/DTD/svg11.dtd">
<svg version="1.1"
	 id="svg4170" inkscape:version="0.48.2 r9819" sodipodi:docname="Zaplings square dark logo.svg" xmlns:dc="http://purl.org/dc/elements/1.1/" xmlns:cc="http://creativecommons.org/ns#" xmlns:inkscape="http://www.inkscape.org/namespaces/inkscape" xmlns:rdf="http://www.w3.org/1999/02/22-rdf-syntax-ns#" xmlns:svg="http://www.w3.org/2000/svg" xmlns:sodipodi="http://sodipodi.sourceforge.net/DTD/sodipodi-0.dtd"
	 xmlns="http://www.w3.org/2000/svg" xmlns:xlink="http://www.w3.org/1999/xlink" x="0px" y="0px" width="95.591px" height="44px"
	 viewBox="216.662 292.727 95.591 44" enable-background="new 216.662 292.727 95.591 44" xml:space="preserve">
<sodipodi:namedview  units="mm" id="base" inkscape:pageopacity="0.0" fit-margin-bottom="0" inkscape:current-layer="layer1" fit-margin-right="0" inkscape:window-y="-8" inkscape:pageshadow="2" inkscape:window-maximized="1" inkscape:window-height="706" inkscape:window-x="-8" inkscape:window-width="1366" inkscape:document-units="mm" bordercolor="#666666" borderopacity="1.0" pagecolor="#ffffff" inkscape:cx="170.73435" fit-margin-left="0" showgrid="false" inkscape:cy="282.70299" inkscape:zoom="0.24748737" fit-margin-top="0">
	</sodipodi:namedview>
<g id="layer1" transform="translate(519.46875,428.53125)" inkscape:groupmode="layer" inkscape:label="Layer 1">
	<rect id="rect4099" x="-306.625" y="-140.688" fill="#05325B" width="99.409" height="48.883"/>
	<g id="g4283" transform="matrix(6.1408655,0,0,6.1408655,-2340.4083,-3184.7089)">
		<g id="g3209" transform="matrix(1.25,0,0,-1.25,307.84042,545.91324)">
			<path id="path3211" inkscape:connector-curvature="0" fill="#FFFFFF" d="M20.108,35.532l1.132,1.648v0.01h-1.033v0.335h1.559
				v-0.237l-1.119-1.635v-0.01h1.135v-0.335h-1.674V35.532z"/>
		</g>
		<g id="g3213" transform="matrix(1.25,0,0,-1.25,346.00204,537.99574)">
			<path id="path3215" inkscape:connector-curvature="0" fill="#FFFFFF" d="M-7.727,29.757c-0.286,0.003-0.559-0.056-0.559-0.299
				c0-0.158,0.102-0.23,0.23-0.23c0.164,0,0.279,0.105,0.319,0.22c0.01,0.029,0.01,0.059,0.01,0.089V29.757z M-7.333,29.359
				c0-0.145,0.006-0.286,0.026-0.385h-0.365l-0.03,0.178h-0.01c-0.095-0.125-0.263-0.214-0.474-0.214
				c-0.322,0-0.503,0.234-0.503,0.477c0,0.401,0.359,0.608,0.951,0.605v0.026c0,0.105-0.043,0.28-0.326,0.28
				c-0.158,0-0.322-0.049-0.431-0.119l-0.079,0.263c0.119,0.072,0.326,0.142,0.579,0.142c0.513,0,0.661-0.326,0.661-0.678V29.359z"
				/>
		</g>
		<g id="g3217" transform="matrix(1.25,0,0,-1.25,359.88142,539.57787)">
			<path id="path3219" inkscape:connector-curvature="0" fill="#FFFFFF" d="M-17.851,30.911c0-0.039,0.003-0.076,0.01-0.112
				c0.043-0.164,0.184-0.283,0.359-0.283c0.256,0,0.408,0.214,0.408,0.529c0,0.283-0.138,0.513-0.398,0.513
				c-0.168,0-0.322-0.122-0.365-0.299c-0.006-0.033-0.013-0.069-0.013-0.102V30.911z M-18.256,31.309
				c0,0.21-0.006,0.382-0.013,0.533h0.355l0.02-0.247h0.006c0.118,0.181,0.306,0.283,0.549,0.283c0.368,0,0.674-0.316,0.674-0.816
				c0-0.579-0.365-0.858-0.73-0.858c-0.2,0-0.368,0.086-0.45,0.214h-0.007v-0.829h-0.405V31.309L-18.256,31.309z"/>
		</g>
		<path id="path3221" inkscape:connector-curvature="0" fill="#FFFFFF" d="M339.947,499.776h0.506v2.002h-0.506V499.776z"/>
		<g id="g3223" transform="matrix(1.25,0,0,-1.25,395.7408,533.15087)">
			<path id="path3225" inkscape:connector-curvature="0" fill="#FFFFFF" d="M-44.007,26.223c0,0.184-0.007,0.339-0.013,0.477h0.352
				l0.02-0.24h0.01c0.073,0.125,0.247,0.276,0.513,0.276c0.28,0,0.569-0.181,0.569-0.688v-0.95h-0.405v0.904
				c0,0.23-0.085,0.405-0.306,0.405c-0.161,0-0.273-0.115-0.316-0.237c-0.013-0.033-0.02-0.082-0.02-0.128v-0.944h-0.405V26.223z"/>
		</g>
		<g id="g3227" transform="matrix(1.25,0,0,-1.25,434.87654,535.47875)">
			<path id="path3229" inkscape:connector-curvature="0" fill="#FFFFFF" d="M-72.552,27.921c0,0.039-0.003,0.075-0.013,0.108
				c-0.043,0.148-0.158,0.26-0.329,0.26c-0.227,0-0.395-0.198-0.395-0.523c0-0.273,0.138-0.493,0.392-0.493
				c0.151,0,0.283,0.098,0.329,0.246c0.013,0.039,0.017,0.095,0.017,0.141V27.921z M-72.148,27.194c0-0.335-0.069-0.576-0.237-0.727
				c-0.164-0.148-0.398-0.194-0.618-0.194c-0.204,0-0.421,0.046-0.559,0.128l0.089,0.306c0.102-0.059,0.273-0.122,0.467-0.122
				c0.263,0,0.461,0.138,0.461,0.484v0.138h-0.006c-0.092-0.141-0.253-0.237-0.467-0.237c-0.398,0-0.681,0.329-0.681,0.783
				c0,0.526,0.342,0.845,0.727,0.845c0.247,0,0.388-0.119,0.464-0.25h0.007l0.016,0.214h0.352c-0.006-0.108-0.013-0.24-0.013-0.461
				V27.194z"/>
		</g>
		<g id="g3231" transform="matrix(1.25,0,0,-1.25,443.96355,543.76724)">
			<path id="path3233" inkscape:connector-curvature="0" fill="#FFFFFF" d="M-79.18,33.967c0.089-0.056,0.263-0.119,0.407-0.119
				c0.178,0,0.257,0.076,0.257,0.181c0,0.109-0.066,0.161-0.263,0.233c-0.313,0.105-0.441,0.276-0.441,0.467
				c0,0.283,0.233,0.5,0.605,0.5c0.178,0,0.332-0.043,0.428-0.096l-0.082-0.283c-0.066,0.039-0.197,0.092-0.339,0.092
				c-0.145,0-0.224-0.073-0.224-0.171c0-0.102,0.076-0.148,0.28-0.223c0.293-0.102,0.424-0.25,0.428-0.487
				c0-0.293-0.227-0.503-0.651-0.503c-0.194,0-0.368,0.046-0.487,0.112L-79.18,33.967z"/>
		</g>
		<g id="g3235" transform="matrix(1.25,0,0,-1.25,378.33367,516.01212)">
			<path id="path3237" inkscape:connector-curvature="0" fill="#70BF4F" d="M-31.31,13.722c0,0.111,0.09,0.202,0.201,0.202
				c0.111,0,0.201-0.09,0.201-0.202v-2.331h-0.402V13.722z"/>
		</g>
		<g id="g3239" transform="matrix(1.25,0,0,-1.25,379.49817,527.25237)">
			<path id="path3241" inkscape:connector-curvature="0" fill="#70BF4F" d="M-32.159,21.921c0,0-0.206,0.37-0.378,0.46
				c0,0-2.245-0.428-2.788,1.743c0,0,1.749,0.707,3.01-1.552c0,0-1.047,1.042-2.165,1.239c0,0,1.722-0.779,2.335-1.689
				L-32.159,21.921z"/>
		</g>
		<g id="g3243" transform="matrix(1.25,0,0,-1.25,387.44742,522.94449)">
			<path id="path3245" inkscape:connector-curvature="0" fill="#70BF4F" d="M-37.958,18.779c0,0,0.016,1.711,1.834,1.768
				c0,0,0.14-1.694-1.727-1.825c0,0,0.526,0.913,1.16,1.398C-36.691,20.119-37.398,19.815-37.958,18.779"/>
		</g>
	</g>
</g>
</svg>
