<?xml version="1.0" encoding="utf-8"?>
<!-- Generator: Adobe Illustrator 16.0.0, SVG Export Plug-In . SVG Version: 6.00 Build 0)  -->
<!DOCTYPE svg PUBLIC "-//W3C//DTD SVG 1.1//EN" "http://www.w3.org/Graphics/SVG/1.1/DTD/svg11.dtd">
<svg version="1.1"
	 id="svg4170" sodipodi:docname="Zaplings square dark logo.svg" inkscape:version="0.48.2 r9819" xmlns:svg="http://www.w3.org/2000/svg" xmlns:sodipodi="http://sodipodi.sourceforge.net/DTD/sodipodi-0.dtd" xmlns:dc="http://purl.org/dc/elements/1.1/" xmlns:inkscape="http://www.inkscape.org/namespaces/inkscape" xmlns:rdf="http://www.w3.org/1999/02/22-rdf-syntax-ns#" xmlns:cc="http://creativecommons.org/ns#"
	 xmlns="http://www.w3.org/2000/svg" xmlns:xlink="http://www.w3.org/1999/xlink" x="0px" y="0px" width="130px" height="60px"
	 viewBox="215.844 282.671 130 60" enable-background="new 215.844 282.671 130 60" xml:space="preserve">
<sodipodi:namedview  units="mm" inkscape:document-units="mm" inkscape:window-width="1366" inkscape:window-x="-8" inkscape:window-height="706" inkscape:window-maximized="1" inkscape:pageshadow="2" inkscape:window-y="-8" fit-margin-right="0" inkscape:current-layer="layer1" fit-margin-bottom="0" inkscape:pageopacity="0.0" fit-margin-top="0" inkscape:zoom="0.24748737" inkscape:cy="282.70299" fit-margin-left="0" borderopacity="1.0" showgrid="false" inkscape:cx="170.73435" bordercolor="#666666" id="base" pagecolor="#ffffff">
	</sodipodi:namedview>
<g id="layer1" transform="translate(519.46875,428.53125)" inkscape:label="Layer 1" inkscape:groupmode="layer">
	<rect id="rect4099" x="-303.625" y="-146.281" fill="#05325B" width="130" height="60"/>
	<g id="g4283" transform="matrix(6.1408655,0,0,6.1408655,-2340.4083,-3184.7089)">
		<g id="g3209" transform="matrix(1.25,0,0,-1.25,307.84042,545.91324)">
			<path id="path3211" inkscape:connector-curvature="0" fill="#FFFFFF" d="M20.138,35.291l1.556,2.266v0.013h-1.421v0.461h2.144
				v-0.326l-1.538-2.248v-0.014h1.561v-0.461h-2.302V35.291z"/>
		</g>
		<g id="g3213" transform="matrix(1.25,0,0,-1.25,346.00204,537.99574)">
			<path id="path3215" inkscape:connector-curvature="0" fill="#FFFFFF" d="M-6.686,29.726c-0.394,0.004-0.769-0.077-0.769-0.411
				c0-0.217,0.14-0.317,0.317-0.317c0.226,0,0.384,0.145,0.439,0.303c0.014,0.04,0.014,0.081,0.014,0.122V29.726z M-6.144,29.179
				c0-0.199,0.009-0.393,0.036-0.529H-6.61l-0.041,0.244h-0.014C-6.795,28.722-7.026,28.6-7.315,28.6
				c-0.443,0-0.692,0.321-0.692,0.656c0,0.552,0.493,0.837,1.307,0.832v0.036c0,0.145-0.059,0.385-0.448,0.385
				c-0.217,0-0.443-0.068-0.592-0.163l-0.109,0.362c0.163,0.1,0.448,0.195,0.796,0.195c0.706,0,0.909-0.448,0.909-0.932V29.179z"/>
		</g>
		<g id="g3217" transform="matrix(1.25,0,0,-1.25,359.88142,539.57787)">
			<path id="path3219" inkscape:connector-curvature="0" fill="#FFFFFF" d="M-16.442,30.838c0-0.054,0.005-0.104,0.014-0.154
				c0.059-0.226,0.253-0.389,0.493-0.389c0.353,0,0.561,0.294,0.561,0.728c0,0.389-0.19,0.706-0.547,0.706
				c-0.231,0-0.443-0.167-0.502-0.412c-0.009-0.045-0.018-0.095-0.018-0.14V30.838z M-16.999,31.385c0,0.29-0.009,0.525-0.018,0.733
				h0.489l0.027-0.339h0.009c0.163,0.249,0.421,0.389,0.755,0.389c0.507,0,0.927-0.434,0.927-1.122c0-0.796-0.502-1.18-1.004-1.18
				c-0.276,0-0.506,0.118-0.619,0.294h-0.009v-1.14h-0.557V31.385L-16.999,31.385z"/>
		</g>
		<path id="path3221" inkscape:connector-curvature="0" fill="#FFFFFF" d="M342.601,499.43h0.695v2.753h-0.695V499.43z"/>
		<g id="g3223" transform="matrix(1.25,0,0,-1.25,395.7408,533.15087)">
			<path id="path3225" inkscape:connector-curvature="0" fill="#FFFFFF" d="M-41.648,26.32c0,0.253-0.009,0.466-0.018,0.656h0.484
				l0.027-0.33h0.013c0.1,0.172,0.34,0.38,0.706,0.38c0.385,0,0.783-0.249,0.783-0.946v-1.307h-0.557v1.243
				c0,0.317-0.118,0.556-0.42,0.556c-0.222,0-0.376-0.158-0.434-0.326c-0.018-0.045-0.027-0.113-0.027-0.176v-1.298h-0.556V26.32z"
				/>
		</g>
		<g id="g3227" transform="matrix(1.25,0,0,-1.25,434.87654,535.47875)">
			<path id="path3229" inkscape:connector-curvature="0" fill="#FFFFFF" d="M-69.157,27.957c0,0.054-0.005,0.104-0.018,0.149
				c-0.059,0.203-0.217,0.358-0.453,0.358c-0.312,0-0.543-0.272-0.543-0.719c0-0.375,0.19-0.678,0.538-0.678
				c0.208,0,0.389,0.135,0.452,0.339c0.018,0.054,0.023,0.131,0.023,0.194V27.957z M-68.601,26.957c0-0.461-0.095-0.792-0.326-1
				c-0.226-0.203-0.547-0.267-0.85-0.267c-0.281,0-0.579,0.063-0.769,0.176l0.122,0.42c0.14-0.081,0.376-0.167,0.642-0.167
				c0.362,0,0.633,0.19,0.633,0.665v0.19h-0.009c-0.127-0.195-0.348-0.326-0.642-0.326c-0.547,0-0.936,0.452-0.936,1.076
				c0,0.724,0.47,1.163,0.999,1.163c0.34,0,0.534-0.163,0.638-0.344h0.009l0.023,0.294h0.484c-0.009-0.149-0.018-0.33-0.018-0.633
				V26.957z"/>
		</g>
		<g id="g3231" transform="matrix(1.25,0,0,-1.25,443.96355,543.76724)">
			<path id="path3233" inkscape:connector-curvature="0" fill="#FFFFFF" d="M-75.545,33.783c0.122-0.077,0.362-0.163,0.56-0.163
				c0.245,0,0.353,0.104,0.353,0.249c0,0.149-0.09,0.221-0.362,0.321c-0.43,0.145-0.606,0.38-0.606,0.642
				c0,0.389,0.321,0.688,0.832,0.688c0.244,0,0.457-0.059,0.588-0.131l-0.113-0.389c-0.091,0.054-0.271,0.127-0.466,0.127
				c-0.199,0-0.308-0.1-0.308-0.235c0-0.14,0.104-0.203,0.385-0.307c0.402-0.14,0.583-0.344,0.588-0.669
				c0-0.402-0.312-0.692-0.896-0.692c-0.267,0-0.506,0.063-0.67,0.154L-75.545,33.783z"/>
		</g>
		<g id="g3235" transform="matrix(1.25,0,0,-1.25,378.33367,516.01212)">
			<path id="path3237" inkscape:connector-curvature="0" fill="#70BF4F" d="M-29.413,14.273c0,0.153,0.124,0.277,0.277,0.277
				c0.153,0,0.277-0.124,0.277-0.277v-3.206h-0.553V14.273z"/>
		</g>
		<g id="g3239" transform="matrix(1.25,0,0,-1.25,379.49817,527.25237)">
			<path id="path3241" inkscape:connector-curvature="0" fill="#70BF4F" d="M-30.231,22.174c0,0-0.283,0.509-0.52,0.633
				c0,0-3.087-0.588-3.834,2.397c0,0,2.405,0.972,4.138-2.134c0,0-1.44,1.433-2.978,1.704c0,0,2.367-1.071,3.211-2.322
				L-30.231,22.174z"/>
		</g>
		<g id="g3243" transform="matrix(1.25,0,0,-1.25,387.44742,522.94449)">
			<path id="path3245" inkscape:connector-curvature="0" fill="#70BF4F" d="M-35.819,19.146c0,0,0.022,2.352,2.522,2.431
				c0,0,0.192-2.329-2.375-2.51c0,0,0.724,1.255,1.595,1.922C-34.077,20.99-35.05,20.571-35.819,19.146"/>
		</g>
	</g>
</g>
</svg>
