<?xml version="1.0" encoding="utf-8"?>
<!-- Generator: Adobe Illustrator 16.0.0, SVG Export Plug-In . SVG Version: 6.00 Build 0)  -->
<!DOCTYPE svg PUBLIC "-//W3C//DTD SVG 1.1//EN" "http://www.w3.org/Graphics/SVG/1.1/DTD/svg11.dtd">
<svg version="1.1" id="Layer_1" xmlns="http://www.w3.org/2000/svg" xmlns:xlink="http://www.w3.org/1999/xlink" x="0px" y="0px"
	 width="78.598px" height="59.605px" viewBox="0 0 78.598 59.605" enable-background="new 0 0 78.598 59.605" xml:space="preserve">
<g>
	<circle fill="none" stroke="#70BF4F" stroke-width="2.8531" stroke-miterlimit="10" cx="39.299" cy="22" r="20"/>
	<path fill="#E2C73D" stroke="#617FC6" stroke-width="1.1412" stroke-miterlimit="10" d="M50.368,18.071"/>
	<path fill="#E2C73D" stroke="#617FC6" stroke-width="1.1412" stroke-miterlimit="10" d="M51.016,19.911"/>
	<path fill="none" stroke="#A8BCCC" stroke-width="2.2825" stroke-miterlimit="10" d="M34.135,25.452"/>
	<path fill="none" stroke="#A8BCCC" stroke-width="2.2825" stroke-miterlimit="10" d="M34.135,25.452"/>
	<g>
		<path fill="#70BF4F" d="M39.299,7.514c5.117,0,9.278,4.164,9.278,9.278c0,3.308-1.737,6.293-4.646,7.984l-1.153,0.671v1.334v3.929
			h-6.959v-3.929V25.45l-1.153-0.673c-2.91-1.694-4.646-4.68-4.646-7.984C30.021,11.678,34.184,7.514,39.299,7.514 M39.299,5.195
			c-6.405,0-11.598,5.192-11.598,11.598c0,4.281,2.347,7.979,5.799,9.989v3.929c0,1.281,1.037,2.319,2.319,2.319h6.959
			c1.28,0,2.319-1.038,2.319-2.319v-3.929c3.451-2.009,5.799-5.708,5.799-9.99C50.897,10.387,45.706,5.195,39.299,5.195
			L39.299,5.195z"/>
		<path fill="#70BF4F" d="M43.721,34.907c0,0.636-0.608,1.102-1.322,1.102h-6.216c-0.715,0-1.249-0.466-1.249-1.102l0,0
			c0-0.636,0.534-1.181,1.249-1.181h6.216C43.113,33.727,43.721,34.271,43.721,34.907L43.721,34.907z"/>
		<path fill="#70BF4F" d="M42.141,37.663c0,0.628-0.511,1.143-1.138,1.143h-3.41c-0.627,0-1.136-0.515-1.136-1.143l0,0
			c0-0.628,0.509-1.141,1.136-1.141h3.41C41.631,36.522,42.141,37.035,42.141,37.663L42.141,37.663z"/>
	</g>
	<g id="g3243" transform="matrix(1.25,0,0,-1.25,387.44742,522.94449)">
		<path id="path3245" fill="#70BF4F" d="M-278.621,396.359c0,0-6.298,6.101-0.095,13.057c0,0,6.787-5.461,0.686-12.862
			c0,0-1.534,5.179-1.102,9.244C-279.132,405.797-280.497,402.095-278.621,396.359"/>
	</g>
</g>
<text transform="matrix(1 0 0 1 15.9572 56.4998)" fill="#05325B" font-family="'Helvetica'" font-size="14">Creator</text>
</svg>
