<?xml version="1.0" encoding="utf-8"?>
<!-- Generator: Adobe Illustrator 16.0.0, SVG Export Plug-In . SVG Version: 6.00 Build 0)  -->
<!DOCTYPE svg PUBLIC "-//W3C//DTD SVG 1.1//EN" "http://www.w3.org/Graphics/SVG/1.1/DTD/svg11.dtd">
<svg version="1.1" id="Layer_1" xmlns="http://www.w3.org/2000/svg" xmlns:xlink="http://www.w3.org/1999/xlink" x="0px" y="0px"
	 width="777px" height="777px" viewBox="0 0 777 777" enable-background="new 0 0 777 777" xml:space="preserve">
<circle fill="#D3C68D" stroke="#997B00" stroke-width="50" stroke-miterlimit="10" cx="388.5" cy="388.5" r="350.5"/>
<path fill="#E2C73D" stroke="#617FC6" stroke-width="20" stroke-miterlimit="10" d="M582.468,319.653"/>
<path fill="#E2C73D" stroke="#617FC6" stroke-width="20" stroke-miterlimit="10" d="M593.833,351.889"/>
<path fill="none" stroke="#A8BCCC" stroke-width="40" stroke-miterlimit="10" d="M298,448.995"/>
<path fill="none" stroke="#A8BCCC" stroke-width="40" stroke-miterlimit="10" d="M298,448.995"/>
<g>
	<path fill="#997B00" d="M388.5,134.638c89.678,0,162.606,72.967,162.606,162.605c0,57.959-30.449,110.281-81.424,139.938
		l-20.207,11.751v23.38v68.84H327.522v-68.839V448.97l-20.207-11.789c-51.011-29.694-81.421-82.019-81.421-139.938
		C225.895,207.604,298.861,134.638,388.5,134.638 M388.5,93.986c-112.268,0-203.257,90.989-203.257,203.257
		c0,75.03,41.128,139.815,101.629,175.069v68.839c0,22.469,18.182,40.648,40.65,40.648h121.953c22.431,0,40.65-18.181,40.65-40.648
		v-68.839c60.501-35.215,101.63-100.041,101.63-175.07C591.757,184.976,500.767,93.986,388.5,93.986L388.5,93.986z"/>
	<path fill="#997B00" d="M466,614.699C466,625.835,455.33,634,442.822,634H333.883C321.375,634,312,625.835,312,614.699v-0.005
		C312,603.56,321.375,594,333.883,594h108.939C455.33,594,466,603.561,466,614.694V614.699z"/>
	<path fill="#997B00" d="M438.293,663c0,11-8.916,20-19.916,20h-59.753c-11,0-19.917-9-19.917-20l0,0c0-11.002,8.917-20,19.917-20
		h59.753C429.377,643,438.293,651.998,438.293,663L438.293,663z"/>
</g>
<g id="g3243" transform="matrix(1.25,0,0,-1.25,387.44742,522.94449)">
	<path id="path3245" fill="#997B00" d="M-0.956,30.506c0,0-110.38,106.911-1.661,228.816c0,0,118.956-95.709,12.01-225.406
		c0,0-26.868,90.755-19.286,161.996C-9.897,195.909-33.845,131.037-0.956,30.506"/>
</g>
</svg>
