<?xml version="1.0" encoding="utf-8"?>
<!-- Generator: Adobe Illustrator 16.0.0, SVG Export Plug-In . SVG Version: 6.00 Build 0)  -->
<!DOCTYPE svg PUBLIC "-//W3C//DTD SVG 1.1//EN" "http://www.w3.org/Graphics/SVG/1.1/DTD/svg11.dtd">
<svg version="1.1" id="Layer_1" xmlns="http://www.w3.org/2000/svg" xmlns:xlink="http://www.w3.org/1999/xlink" x="0px" y="0px"
	 width="78.597px" height="59.605px" viewBox="-200 0 78.597 59.605" enable-background="new -200 0 78.597 59.605"
	 xml:space="preserve">
<g>
	<circle fill="none" stroke="#A8BCCC" stroke-width="2.8531" stroke-miterlimit="10" cx="-160.702" cy="22" r="20"/>
	<path fill="#E2C73D" stroke="#617FC6" stroke-width="1.1412" stroke-miterlimit="10" d="M-149.633,18.071"/>
	<path fill="#E2C73D" stroke="#617FC6" stroke-width="1.1412" stroke-miterlimit="10" d="M-148.985,19.911"/>
	<path fill="none" stroke="#A8BCCC" stroke-width="2.2825" stroke-miterlimit="10" d="M-165.866,25.452"/>
	<path fill="none" stroke="#A8BCCC" stroke-width="2.2825" stroke-miterlimit="10" d="M-165.866,25.452"/>
	<g>
		<path fill="#A8BCCC" d="M-160.702,7.514c5.117,0,9.278,4.164,9.278,9.279c0,3.307-1.737,6.293-4.646,7.984l-1.153,0.671v1.334
			v3.929h-6.959v-3.929V25.45l-1.153-0.673c-2.91-1.694-4.646-4.68-4.646-7.984C-169.98,11.678-165.817,7.514-160.702,7.514
			 M-160.702,5.195c-6.406,0-11.598,5.192-11.598,11.598c0,4.281,2.347,7.978,5.799,9.989v3.929c0,1.281,1.037,2.319,2.319,2.319
			h6.959c1.28,0,2.319-1.038,2.319-2.319v-3.929c3.452-2.009,5.799-5.708,5.799-9.99C-149.104,10.387-154.295,5.195-160.702,5.195
			L-160.702,5.195z"/>
		<path fill="#A8BCCC" d="M-156.28,34.907c0,0.636-0.608,1.102-1.322,1.102h-6.216c-0.714,0-1.249-0.466-1.249-1.102l0,0
			c0-0.636,0.535-1.181,1.249-1.181h6.216C-156.888,33.727-156.28,34.271-156.28,34.907L-156.28,34.907z"/>
		<path fill="#A8BCCC" d="M-157.86,37.663c0,0.628-0.51,1.142-1.137,1.142h-3.41c-0.627,0-1.136-0.514-1.136-1.142l0,0
			c0-0.628,0.509-1.141,1.136-1.141h3.41C-158.37,36.522-157.86,37.035-157.86,37.663L-157.86,37.663z"/>
	</g>
	<g id="g3243" transform="matrix(1.25,0,0,-1.25,387.44742,522.94449)">
		<path id="path3245" fill="#A8BCCC" d="M-438.622,396.359c0,0-6.298,6.101-0.095,13.057c0,0,6.788-5.461,0.686-12.862
			c0,0-1.534,5.179-1.101,9.244C-439.132,405.797-440.498,402.095-438.622,396.359"/>
	</g>
</g>
<text transform="matrix(1 0 0 1 -184.043 56.5)" fill="#05325B" font-family="'Helvetica'" font-size="14">Creator</text>
</svg>
