<?xml version="1.0" encoding="utf-8"?>
<!-- Generator: Adobe Illustrator 16.0.0, SVG Export Plug-In . SVG Version: 6.00 Build 0)  -->
<!DOCTYPE svg PUBLIC "-//W3C//DTD SVG 1.1//EN" "http://www.w3.org/Graphics/SVG/1.1/DTD/svg11.dtd">
<svg version="1.1" id="Layer_1" xmlns="http://www.w3.org/2000/svg" xmlns:xlink="http://www.w3.org/1999/xlink" x="0px" y="0px"
	 width="30.812px" height="29.746px" viewBox="0 0 30.812 29.746" enable-background="new 0 0 30.812 29.746" xml:space="preserve">
<g>
	<path fill="#05325B" d="M24.577,26.839c-1.069-0.43-2.302-0.647-3.664-0.647c-3.343,0-6.523,1.28-7.48,1.702v-6.118l0.446,0.49
		v-9.192c1.688-1.419,3.735-2.181,6.1-2.273l0.459-0.773c-2.779,0.003-5.179,0.853-7.131,2.527
		c-1.955-1.678-4.357-2.528-7.147-2.528c-2.605,0-4.559,0.759-4.64,0.791l-0.24,0.094v1.539C0.491,12.598,0,12.862,0,13.293
		c0,2.244,0,15.859,0,15.859h11.68c0.405,0.361,0.995,0.592,1.656,0.592s1.252-0.229,1.655-0.592h11.388c0,0,0-14.918,0-15.843
		l-1.802,3.729V26.839z M13.181,27.903c-0.97-0.399-4.31-1.67-7.654-1.67c-1.32,0-2.491,0.204-3.489,0.603V11.436
		c0.582-0.194,2.169-0.652,4.122-0.652c2.567,0,4.774,0.776,6.577,2.291v9.192l0.444-0.49V27.903z"/>
	<path fill="#05325B" d="M3.534,13.461l0.156,0.593c3.944-1.046,7.494,0.889,7.529,0.909l0.298-0.536
		C11.366,14.344,7.723,12.351,3.534,13.461z"/>
	<path fill="#05325B" d="M3.534,15.197l0.156,0.591c3.944-1.046,7.494,0.891,7.529,0.91l0.298-0.535
		C11.366,16.078,7.723,14.086,3.534,15.197z"/>
	<path fill="#05325B" d="M3.534,16.828l0.156,0.592c3.944-1.045,7.494,0.892,7.529,0.91l0.298-0.535
		C11.366,17.708,7.723,15.716,3.534,16.828z"/>
	<path fill="#05325B" d="M3.534,18.615l0.156,0.592c3.944-1.045,7.494,0.891,7.529,0.91l0.298-0.535
		C11.366,19.498,7.723,17.503,3.534,18.615z"/>
	<path fill="#05325B" d="M3.534,20.271l0.156,0.592c3.944-1.045,7.494,0.891,7.529,0.909l0.298-0.535
		C11.366,21.153,7.723,19.162,3.534,20.271z"/>
	<path fill="#05325B" d="M3.534,21.972l0.156,0.593c3.944-1.047,7.494,0.89,7.529,0.909l0.298-0.536
		C11.366,22.853,7.723,20.863,3.534,21.972z"/>
	<path fill="#05325B" d="M3.534,23.677l0.156,0.592c3.944-1.046,7.494,0.889,7.529,0.908l0.298-0.533
		C11.366,24.558,7.723,22.567,3.534,23.677z"/>
	<path fill="#05325B" d="M26.347,0l-1.848,3.801l0.009,0.003l-5.717,11.773l-0.499,6.194l4.893-3.952L28.96,5.965l0.008,0.005
		l1.845-3.801L26.347,0z M22.854,17.494l-2.793,2.254l-1.107-0.535l0.272-3.471l0.259-0.538l0.513,1.817l1.133-0.729l0.222,1.385
		l1.69-0.571L22.854,17.494z M28.894,4.005l-2.803-1.361l0.682-1.406L29.576,2.6L28.894,4.005z"/>
</g>
</svg>
