<?xml version="1.0" encoding="utf-8"?>
<!-- Generator: Adobe Illustrator 16.0.0, SVG Export Plug-In . SVG Version: 6.00 Build 0)  -->
<!DOCTYPE svg PUBLIC "-//W3C//DTD SVG 1.1//EN" "http://www.w3.org/Graphics/SVG/1.1/DTD/svg11.dtd">
<svg version="1.1"
	 id="svg4170" inkscape:version="0.48.2 r9819" sodipodi:docname="Zaplings square dark logo.svg" xmlns:sodipodi="http://sodipodi.sourceforge.net/DTD/sodipodi-0.dtd" xmlns:svg="http://www.w3.org/2000/svg" xmlns:rdf="http://www.w3.org/1999/02/22-rdf-syntax-ns#" xmlns:inkscape="http://www.inkscape.org/namespaces/inkscape" xmlns:cc="http://creativecommons.org/ns#" xmlns:dc="http://purl.org/dc/elements/1.1/"
	 xmlns="http://www.w3.org/2000/svg" xmlns:xlink="http://www.w3.org/1999/xlink" x="0px" y="0px" width="111px" height="50px"
	 viewBox="0 0 111 50" enable-background="new 0 0 111 50" xml:space="preserve">
<sodipodi:namedview  units="mm" inkscape:document-units="mm" inkscape:pageopacity="0.0" fit-margin-bottom="0" inkscape:current-layer="layer1" fit-margin-right="0" inkscape:window-height="706" inkscape:window-x="-8" inkscape:window-width="1366" inkscape:window-y="-8" inkscape:pageshadow="2" inkscape:window-maximized="1" fit-margin-top="0" inkscape:zoom="0.24748737" inkscape:cy="282.70299" showgrid="false" fit-margin-left="0" inkscape:cx="170.73435" pagecolor="#ffffff" borderopacity="1.0" bordercolor="#666666" id="base">
	</sodipodi:namedview>
<g id="layer1" transform="translate(519.46875,428.53125)" inkscape:label="Layer 1" inkscape:groupmode="layer">
	<rect id="rect4099" x="-305.216" y="-135.467" fill="#05325B" width="111" height="50"/>
	<g id="g4283" transform="matrix(6.1408655,0,0,6.1408655,-2340.4083,-3184.7089)">
		<g id="g3209" transform="matrix(1.25,0,0,-1.25,307.84042,545.91324)">
			<path id="path3211" inkscape:connector-curvature="0" fill="#FFFFFF" d="M19.991,34.271l1.306,1.902v0.011h-1.192v0.387h1.8
				v-0.273l-1.291-1.887V34.4h1.31v-0.387h-1.932v0.258H19.991z"/>
		</g>
		<g id="g3213" transform="matrix(1.25,0,0,-1.25,346.00204,537.99574)">
			<path id="path3215" inkscape:connector-curvature="0" fill="#FFFFFF" d="M-7.429,28.582c-0.331,0.004-0.645-0.064-0.645-0.345
				c0-0.182,0.118-0.266,0.266-0.266c0.19,0,0.323,0.121,0.368,0.254c0.012,0.034,0.012,0.068,0.012,0.102v0.255H-7.429z
				 M-6.973,28.123c0-0.167,0.008-0.33,0.03-0.444h-0.422L-7.4,27.884h-0.01c-0.11-0.144-0.304-0.247-0.547-0.247
				c-0.372,0-0.581,0.27-0.581,0.55c0,0.463,0.414,0.702,1.097,0.698v0.03c0,0.122-0.049,0.323-0.376,0.323
				c-0.182,0-0.372-0.057-0.497-0.137l-0.091,0.304c0.137,0.084,0.376,0.163,0.668,0.163c0.592,0,0.763-0.376,0.763-0.782v-0.663
				H-6.973z"/>
		</g>
		<g id="g3217" transform="matrix(1.25,0,0,-1.25,359.88142,539.57787)">
			<path id="path3219" inkscape:connector-curvature="0" fill="#FFFFFF" d="M-17.402,29.719c0-0.045,0.004-0.087,0.011-0.129
				c0.05-0.19,0.212-0.326,0.414-0.326c0.296,0,0.471,0.247,0.471,0.611c0,0.326-0.159,0.592-0.459,0.592
				c-0.194,0-0.372-0.14-0.421-0.345c-0.008-0.038-0.015-0.08-0.015-0.118v-0.285H-17.402z M-17.869,30.178
				c0,0.243-0.007,0.441-0.015,0.615h0.41l0.023-0.285h0.008c0.136,0.209,0.353,0.327,0.634,0.327c0.425,0,0.778-0.364,0.778-0.942
				c0-0.668-0.421-0.991-0.843-0.991c-0.231,0-0.425,0.099-0.52,0.247h-0.008v-0.957h-0.467V30.178L-17.869,30.178z"/>
		</g>
		<path id="path3221" inkscape:connector-curvature="0" fill="#FFFFFF" d="M340.875,501.087h0.584v2.311h-0.584V501.087z"/>
		<g id="g3223" transform="matrix(1.25,0,0,-1.25,395.7408,533.15087)">
			<path id="path3225" inkscape:connector-curvature="0" fill="#FFFFFF" d="M-43.167,25.101c0,0.213-0.008,0.391-0.015,0.55h0.406
				l0.023-0.277h0.011c0.084,0.144,0.285,0.319,0.592,0.319c0.323,0,0.657-0.209,0.657-0.794v-1.097h-0.467v1.044
				c0,0.266-0.099,0.467-0.353,0.467c-0.186,0-0.315-0.133-0.365-0.273c-0.015-0.038-0.023-0.095-0.023-0.148v-1.089h-0.467v1.298
				H-43.167z"/>
		</g>
		<g id="g3227" transform="matrix(1.25,0,0,-1.25,434.87654,535.47875)">
			<path id="path3229" inkscape:connector-curvature="0" fill="#FFFFFF" d="M-71.288,26.774c0,0.045-0.004,0.087-0.015,0.125
				c-0.05,0.171-0.182,0.3-0.38,0.3c-0.262,0-0.456-0.228-0.456-0.604c0-0.315,0.16-0.569,0.452-0.569
				c0.175,0,0.327,0.114,0.379,0.284c0.015,0.046,0.019,0.11,0.019,0.163v0.301H-71.288z M-70.821,25.935
				c0-0.387-0.08-0.664-0.273-0.839c-0.19-0.171-0.459-0.224-0.714-0.224c-0.236,0-0.486,0.053-0.645,0.148l0.102,0.353
				c0.118-0.068,0.315-0.14,0.539-0.14c0.304,0,0.532,0.16,0.532,0.558v0.159h-0.007c-0.106-0.163-0.292-0.273-0.539-0.273
				c-0.459,0-0.786,0.379-0.786,0.903c0,0.607,0.395,0.976,0.839,0.976c0.285,0,0.448-0.137,0.535-0.289h0.008l0.019,0.247h0.406
				c-0.008-0.125-0.015-0.277-0.015-0.532v-1.047H-70.821z"/>
		</g>
		<g id="g3231" transform="matrix(1.25,0,0,-1.25,443.96355,543.76724)">
			<path id="path3233" inkscape:connector-curvature="0" fill="#FFFFFF" d="M-77.817,32.729c0.102-0.065,0.303-0.137,0.47-0.137
				c0.205,0,0.296,0.087,0.296,0.209c0,0.125-0.076,0.186-0.303,0.269c-0.361,0.121-0.508,0.319-0.508,0.539
				c0,0.327,0.269,0.577,0.698,0.577c0.205,0,0.384-0.049,0.494-0.11l-0.095-0.327c-0.076,0.046-0.228,0.106-0.391,0.106
				c-0.167,0-0.258-0.084-0.258-0.198c0-0.117,0.088-0.171,0.323-0.258c0.338-0.118,0.49-0.288,0.494-0.562
				c0-0.338-0.262-0.581-0.752-0.581c-0.224,0-0.425,0.053-0.562,0.129L-77.817,32.729z"/>
		</g>
		<g id="g3235" transform="matrix(1.25,0,0,-1.25,378.33367,516.01212)">
			<path id="path3237" inkscape:connector-curvature="0" fill="#70BF4F" d="M-30.661,12.786c0,0.129,0.104,0.233,0.232,0.233
				c0.129,0,0.232-0.104,0.232-0.233v-2.69h-0.464V12.786z"/>
		</g>
		<g id="g3239" transform="matrix(1.25,0,0,-1.25,379.49817,527.25237)">
			<path id="path3241" inkscape:connector-curvature="0" fill="#70BF4F" d="M-31.496,20.863c0,0-0.237,0.427-0.436,0.531
				c0,0-2.591-0.493-3.217,2.012c0,0,2.018,0.816,3.473-1.791c0,0-1.208,1.202-2.499,1.43c0,0,1.987-0.899,2.695-1.949
				L-31.496,20.863z"/>
		</g>
		<g id="g3243" transform="matrix(1.25,0,0,-1.25,387.44742,522.94449)">
			<path id="path3245" inkscape:connector-curvature="0" fill="#70BF4F" d="M-37.209,17.768c0,0,0.019,1.974,2.116,2.04
				c0,0,0.161-1.955-1.993-2.107c0,0,0.607,1.053,1.338,1.613C-35.748,19.315-36.564,18.964-37.209,17.768"/>
		</g>
	</g>
</g>
</svg>
