<?xml version="1.0" encoding="utf-8"?>
<!-- Generator: Adobe Illustrator 16.0.0, SVG Export Plug-In . SVG Version: 6.00 Build 0)  -->
<!DOCTYPE svg PUBLIC "-//W3C//DTD SVG 1.1//EN" "http://www.w3.org/Graphics/SVG/1.1/DTD/svg11.dtd">
<svg version="1.1" id="Layer_1" xmlns="http://www.w3.org/2000/svg" xmlns:xlink="http://www.w3.org/1999/xlink" x="0px" y="0px"
	 width="512px" height="512px" viewBox="0 0 512 512" enable-background="new 0 0 512 512" xml:space="preserve">
<g>
	<path fill="#05325B" d="M446.195,392.836l-92.347-92.346c-13.757,21.397-31.961,39.602-53.358,53.358l92.346,92.347
		c14.74,14.739,38.644,14.739,53.359,0C460.935,431.479,460.935,407.576,446.195,392.836z"/>
	<path fill="#05325B" d="M356.625,205.688c0-83.354-67.583-150.938-150.938-150.938S54.75,122.333,54.75,205.688
		s67.583,150.938,150.938,150.938S356.625,289.042,356.625,205.688z M205.688,318.891c-62.424,0-113.203-50.779-113.203-113.203
		S143.264,92.484,205.688,92.484s113.203,50.779,113.203,113.203S268.111,318.891,205.688,318.891z"/>
	<path fill="#05325B" d="M117.641,205.688h25.156c0-34.675,28.215-62.891,62.891-62.891v-25.156
		C157.144,117.641,117.641,157.144,117.641,205.688z"/>
</g>
</svg>
